<svg version="1.1" xmlns="http://www.w3.org/2000/svg" xmlns:xlink="http://www.w3.org/1999/xlink" width="420.98744" height="158.06894" viewBox="0,0,420.98744,158.06894"><g transform="translate(-50.00229,-106.49043)"><g data-paper-data="{&quot;isPaintingLayer&quot;:true}" fill="none" fill-rule="nonzero" stroke="none" stroke-width="none" stroke-linecap="none" stroke-linejoin="miter" stroke-miterlimit="10" stroke-dasharray="" stroke-dashoffset="0" font-family="none" font-weight="none" font-size="none" text-anchor="none" style="mix-blend-mode: normal"><text transform="translate(50.55,154.14163) scale(1.09543,1.09543)" font-size="40" xml:space="preserve" data-paper-data="{&quot;origPos&quot;:null}" fill="#ef524f" fill-rule="nonzero" stroke="none" stroke-width="1" stroke-linecap="butt" stroke-linejoin="miter" stroke-miterlimit="10" stroke-dasharray="" stroke-dashoffset="0" font-family="Sans Serif" font-weight="normal" text-anchor="start" style="mix-blend-mode: normal"><tspan x="0" dy="0">Scrolling Platformer</tspan></text><path d="M243.96379,215.76364c0,-9.05096 7.33727,-16.38824 16.38824,-16.38824c9.05097,0 16.38824,7.33727 16.38824,16.38824c0,9.05096 -7.33727,16.38823 -16.38824,16.38823c-9.05096,0 -16.38824,-7.33726 -16.38824,-16.38823z" data-paper-data="{&quot;origPos&quot;:null}" fill="#ef524f" stroke="none" stroke-width="0" stroke-linecap="butt"/><path d="M211.49793,215.81871c0,-9.05096 7.33727,-16.38824 16.38824,-16.38824c9.05096,0 16.38823,7.33727 16.38823,16.38824c0,9.05096 -7.33727,16.38823 -16.38823,16.38823c-9.05096,0 -16.38824,-7.33726 -16.38824,-16.38823z" data-paper-data="{&quot;origPos&quot;:null}" fill="#ef524f" stroke="none" stroke-width="0" stroke-linecap="butt"/><path d="M243.68185,248.17113c0,-9.05096 7.33727,-16.38824 16.38824,-16.38824c9.05097,0 16.38824,7.33727 16.38824,16.38824c0,9.05096 -7.33727,16.38823 -16.38824,16.38823c-9.05096,0 -16.38824,-7.33726 -16.38824,-16.38823z" data-paper-data="{&quot;origPos&quot;:null}" fill="#ef524f" stroke="none" stroke-width="0" stroke-linecap="butt"/><path d="M225.86291,264.42384v-64.84768h36.27417v64.84768z" data-paper-data="{&quot;origPos&quot;:null}" fill="#ef524f" stroke="none" stroke-width="0" stroke-linecap="butt"/><path d="M276.39833,250.18262l-64.84762,-0.0911l0.05096,-36.27413l64.84762,0.0911z" data-paper-data="{&quot;origPos&quot;:null}" fill="#ef524f" stroke="none" stroke-width="0" stroke-linecap="butt"/><path d="M211.553,248.0577c0,-9.05096 7.33727,-16.38824 16.38824,-16.38824c9.05096,0 16.38823,7.33727 16.38823,16.38824c0,9.05096 -7.33727,16.38823 -16.38823,16.38823c-9.05096,0 -16.38824,-7.33726 -16.38824,-16.38823z" data-paper-data="{&quot;origPos&quot;:null}" fill="#ef524f" stroke="none" stroke-width="0" stroke-linecap="butt"/><path d="M245.29009,216.39381v14.82819" data-paper-data="{&quot;origPos&quot;:null}" fill="none" stroke="#000000" stroke-width="12.5" stroke-linecap="round"/><path d="M261.91674,231.67245v-14.8282" data-paper-data="{&quot;origPos&quot;:null}" fill="none" stroke="#000000" stroke-width="12.5" stroke-linecap="round"/><path d="M243.43657,217.91033c0,-1.86122 1.50882,-3.37004 3.37004,-3.37004c1.86122,0 3.37004,1.50882 3.37004,3.37004c0,1.86122 -1.50882,3.37004 -3.37004,3.37004c-1.86122,0 -3.37004,-1.50882 -3.37004,-3.37004z" data-paper-data="{&quot;origPos&quot;:null}" fill="#ffffff" stroke="none" stroke-width="0" stroke-linecap="butt"/><path d="M260.40022,217.85526c0,-1.86122 1.50882,-3.37004 3.37005,-3.37004c1.86122,0 3.37005,1.50882 3.37005,3.37004c0,1.86122 -1.50882,3.37004 -3.37005,3.37004c-1.86122,0 -3.37005,-1.50882 -3.37005,-3.37004z" data-paper-data="{&quot;origPos&quot;:null}" fill="#ffffff" stroke="none" stroke-width="0" stroke-linecap="butt"/></g></g></svg>