<svg version="1.1" xmlns="http://www.w3.org/2000/svg" xmlns:xlink="http://www.w3.org/1999/xlink" width="65.24234" height="65.18396"><g transform="translate(-207.49793,-147.3754)"><g data-paper-data="{&quot;isPaintingLayer&quot;:true}" fill="none" fill-rule="nonzero" stroke="none" stroke-width="none" stroke-linecap="none" stroke-linejoin="miter" stroke-miterlimit="10" stroke-dasharray="" stroke-dashoffset="0" font-family="none" font-weight="none" font-size="none" text-anchor="none" style="mix-blend-mode: normal"><path d="M239.96379,163.76364c0,-9.05096 7.33727,-16.38824 16.38824,-16.38824c9.05097,0 16.38824,7.33727 16.38824,16.38824c0,9.05096 -7.33727,16.38823 -16.38824,16.38823c-9.05096,0 -16.38824,-7.33726 -16.38824,-16.38823z" data-paper-data="{&quot;origPos&quot;:null}" fill="#ef524f" stroke="none" stroke-width="0" stroke-linecap="butt"/><path d="M207.49793,163.81871c0,-9.05096 7.33727,-16.38824 16.38824,-16.38824c9.05096,0 16.38823,7.33727 16.38823,16.38824c0,9.05096 -7.33727,16.38823 -16.38823,16.38823c-9.05096,0 -16.38824,-7.33726 -16.38824,-16.38823z" data-paper-data="{&quot;origPos&quot;:null}" fill="#ef524f" stroke="none" stroke-width="0" stroke-linecap="butt"/><path d="M239.68185,196.17113c0,-9.05096 7.33727,-16.38824 16.38824,-16.38824c9.05097,0 16.38824,7.33727 16.38824,16.38824c0,9.05096 -7.33727,16.38823 -16.38824,16.38823c-9.05096,0 -16.38824,-7.33726 -16.38824,-16.38823z" data-paper-data="{&quot;origPos&quot;:null}" fill="#ef524f" stroke="none" stroke-width="0" stroke-linecap="butt"/><path d="M221.86291,212.42384v-64.84768h36.27417v64.84768z" data-paper-data="{&quot;origPos&quot;:null}" fill="#ef524f" stroke="none" stroke-width="0" stroke-linecap="butt"/><path d="M272.39833,198.18262l-64.84762,-0.0911l0.05096,-36.27413l64.84762,0.0911z" data-paper-data="{&quot;origPos&quot;:null}" fill="#ef524f" stroke="none" stroke-width="0" stroke-linecap="butt"/><path d="M207.553,196.0577c0,-9.05096 7.33727,-16.38824 16.38824,-16.38824c9.05096,0 16.38823,7.33727 16.38823,16.38824c0,9.05096 -7.33727,16.38823 -16.38823,16.38823c-9.05096,0 -16.38824,-7.33726 -16.38824,-16.38823z" data-paper-data="{&quot;origPos&quot;:null}" fill="#ef524f" stroke="none" stroke-width="0" stroke-linecap="butt"/><path d="M241.29009,164.39381v14.82819" fill="none" stroke="#000000" stroke-width="12.5" stroke-linecap="round"/><path d="M257.91674,164.84425v14.8282" fill="none" stroke="#000000" stroke-width="12.5" stroke-linecap="round"/><path d="M239.43657,165.91033c0,-1.86122 1.50882,-3.37004 3.37004,-3.37004c1.86122,0 3.37004,1.50882 3.37004,3.37004c0,1.86122 -1.50882,3.37004 -3.37004,3.37004c-1.86122,0 -3.37004,-1.50882 -3.37004,-3.37004z" fill="#ffffff" stroke="none" stroke-width="0" stroke-linecap="butt"/><path d="M256.40022,165.85526c0,-1.86122 1.50882,-3.37004 3.37005,-3.37004c1.86122,0 3.37005,1.50882 3.37005,3.37004c0,1.86122 -1.50882,3.37004 -3.37005,3.37004c-1.86122,0 -3.37005,-1.50882 -3.37005,-3.37004z" fill="#ffffff" stroke="none" stroke-width="0" stroke-linecap="butt"/></g></g></svg>